<?xml version="1.0" standalone="no"?>
<!DOCTYPE svg PUBLIC "-//W3C//DTD SVG 1.1//EN" "http://www.w3.org/Graphics/SVG/1.1/DTD/svg11.dtd"><svg t="1619422978377"
    class="icon" viewBox="0 0 1024 1024" version="1.1" xmlns="http://www.w3.org/2000/svg" p-id="2881"
    xmlns:xlink="http://www.w3.org/1999/xlink" width="200" height="200">
    <defs>
        <style type="text/css"></style>
    </defs>
    <path
        d="M512 0a512 512 0 1 1 0 1024A512 512 0 0 1 512 0z m-12.416 723.712c-13.824 0-24.576 3.84-33.024 13.056a41.856 41.856 0 0 0-13.824 32.256c0 13.056 4.608 23.808 13.824 33.024 8.448 8.448 19.2 13.056 33.024 13.056a48.448 48.448 0 0 0 33.024-13.056 44.544 44.544 0 0 0 13.056-33.024 43.968 43.968 0 0 0-13.056-32.256 43.968 43.968 0 0 0-33.024-13.056zM510.336 256c-54.528 0-97.536 16.896-129.024 50.688-29.952 32.256-45.312 75.264-45.312 129.024h61.44c0-37.632 8.448-66.816 24.576-88.32 19.2-25.344 47.616-37.632 85.248-37.632 32.256 0 57.6 8.448 76.032 26.88 16.896 16.896 25.344 40.704 25.344 71.424 0 21.504-7.68 41.472-22.272 60.672-5.376 6.144-13.824 15.36-26.112 27.648-41.472 36.864-67.584 66.048-77.568 89.088-9.984 19.2-14.592 41.472-14.592 66.816v17.664h62.208v-17.664c0-20.736 4.608-39.936 14.592-56.832 7.68-13.824 19.2-27.648 35.328-41.472 33.792-29.952 55.296-49.92 62.976-59.136 18.432-25.344 28.416-55.296 28.416-89.856 0-46.08-14.592-82.176-43.008-108.288C599.424 269.056 559.488 256 510.336 256z"
        fill="#C0C4CC" p-id="2882"></path>
</svg>